<?xml version="1.0" encoding="UTF-8"?>
<svg viewBox="0 0 334.09354 521.08215" xmlns="http://www.w3.org/2000/svg" xmlns:xlink="http://www.w3.org/1999/xlink">
 <defs>
  <linearGradient id="b">
   <stop stop-color="#bbbbb3" offset="0"/>
   <stop stop-color="#dde2d8" offset="1"/>
  </linearGradient>
  <linearGradient id="a">
   <stop stop-color="#cdd0cd" offset="0"/>
   <stop stop-color="#fff" offset="1"/>
  </linearGradient>
  <linearGradient id="l" x1="580.77" x2="723.42" y1="845.58" y2="882.39" gradientUnits="userSpaceOnUse" spreadMethod="reflect">
   <stop stop-color="#86867c" offset="0"/>
   <stop stop-color="#b6aea8" offset="1"/>
  </linearGradient>
  <linearGradient id="k" x1="459.53" x2="624.89" y1="917.31" y2="943.7" gradientUnits="userSpaceOnUse" xlink:href="#b" spreadMethod="reflect"/>
  <linearGradient id="j" x1="267.89" x2="435.36" gradientUnits="userSpaceOnUse" xlink:href="#a"/>
  <linearGradient id="i" x1="791.18" x2="806.98" y1="1769.6" y2="1747.4" gradientUnits="userSpaceOnUse" xlink:href="#a" spreadMethod="reflect"/>
  <linearGradient id="h" x1="313.79" x2="363.36" y1="259.51" y2="239.51" gradientUnits="userSpaceOnUse" xlink:href="#a"/>
  <linearGradient id="g" x1="336.64" x2="395.71" y1="340.93" y2="309.5" gradientUnits="userSpaceOnUse" xlink:href="#a"/>
  <linearGradient id="f" x1="389.26" x2="378.12" y1="781.18" y2="821.14" gradientUnits="userSpaceOnUse" xlink:href="#a"/>
  <linearGradient id="e" x1="477.26" x2="463.03" y1="806.08" y2="672.79" gradientUnits="userSpaceOnUse" xlink:href="#b"/>
  <linearGradient id="d" x1="791.18" x2="806.98" y1="1769.6" y2="1747.4" gradientTransform="matrix(.59303 0 0 .53343 -73.44 -192.41)" gradientUnits="userSpaceOnUse" xlink:href="#a" spreadMethod="reflect"/>
  <linearGradient id="c" x1="791.18" x2="806.98" y1="1769.6" y2="1747.4" gradientTransform="matrix(.59303 0 0 .53343 -79.756 -188.98)" gradientUnits="userSpaceOnUse" xlink:href="#a" spreadMethod="reflect"/>
 </defs>
 <g transform="matrix(.63497 0 0 .56167 -140.56 -26.203)">
  <path d="m743.59 808.63-13.981 18.26 0.21367 61.708 15.901-19.035-2.1333-60.933z" fill="#c5c8bc" fill-rule="evenodd" stroke="#000" stroke-linejoin="round" stroke-width="3.8124"/>
  <path d="m673.89 884.58-13.195 20.524 2.8275 67.17 15.08-21.457-4.7125-66.237z" fill="#c5c8bc" fill-rule="evenodd" stroke="#000" stroke-linejoin="round" stroke-width="3.9796"/>
  <path d="m462.29 803.35s233.85 19.488 242.51 20.57 22.736 1.0827 22.736 1.0827 2.1653 0 2.1653 5.4133v54.133s1.0827 4.3306-3.248 4.3306-68.207-6.4959-68.207-6.4959-1.0826-7.5786-7.5786-7.5786-193.8-18.405-193.8-18.405-22.736-19.488-23.818-25.984-8.6612-20.57-3.248-23.818 33.562-4.3306 32.48-3.248z" fill="url(#l)" fill-rule="evenodd" stroke="#000" stroke-linecap="round" stroke-linejoin="round" stroke-width="4.5"/>
  <path d="m329.43 786.87-43.111 54.966-27.56-18.373s18.373-17.608 22.967-20.67 12.249-9.9522 20.67-9.9522c9.1866 0 193.68-5.3589 200.57-5.3589s210.53 18.373 218.18 18.373 18.373 1.5311 18.373 1.5311 3.0622-0.76555 1.5311 2.2967-11.483 16.077-11.483 16.077l-240.38-17.608-159.76-21.282z" fill="#fff" fill-rule="evenodd" stroke="#000" stroke-linejoin="round" stroke-width="4.5"/>
  <path d="m259.3 825.4s12.436 8.7055 16.789 11.815 9.3273 5.5964 9.3273 5.5964l4.3528-13.058s8.8852 4.7427 16.167 10.571c6.812 5.452 46.474 25.182 81.459 31.713s135.56 23.629 182.19 26.738 91.408 5.5964 91.408 5.5964l3.1091 67.157-65.291-4.9746s1.2436 1.2436-5.5964-0.62182-12.436-8.7055-12.436-8.7055-80.215-9.3273-83.946-9.3273-130.58-18.033-147.99-24.873-26.738-11.193-29.847-9.3273-4.9746 6.2182-4.9746 6.2182c0.85434 0.42717-22.359-6.252-35.444-13.68s-23.629-17.411-23.629-17.411l1.2436-27.36 3.1091-36.066z" fill="url(#k)" fill-rule="evenodd" stroke="#000" stroke-linecap="round" stroke-linejoin="round" stroke-width="4.5"/>
  <path d="m391.04145,522.93847c-2.6444-5.2385-2.9282-6.501-1.9776-8.7959 .9685-2.3382.538-3.9115-3.3798-12.3528-3.6271-7.8147-4.9858-9.7978-7.0717-10.3213-1.4201-.3564-3.2413-1.923-4.0471-3.4812-1.7864-3.4547-1.8121-3.9263-.2151-3.9547 .6875-.0123 2.3533-.8701 3.7017-1.9064l2.4516-1.8842-3.7016-7.888c-3.3615-7.1631-4.7357-11.6665-3.0437-9.9745 .3619.3619 1.1494.2708 1.75-.2024 2.1373-1.6839 11.4048-3.3265 13.1759-2.3353 1.85,1.0353 5.414,9.435 5.4153,12.763 .0005,1.1275.5633,2.6406 1.2508,3.3624 1.0198,1.0707.8356,1.1872-1,.6326-2.2565-.6817-3.1798.7623-1.25,1.955 1.2719.786 1.2937,5.0828.0377,7.4296-.7252,1.355.1051,4.2235 3.3691,11.6406 3.4831,7.915 4.8518,10.016 6.989,10.7284 4.4558,1.4853 8.2963,11.5655 5.8389,15.3256-1.5672,2.3979-7.9098,5.3685-11.4703,5.3721-3.5715.0035-3.8712-.2649-6.8231-6.1126z"/>
  <path d="m316.72 319.84-66.866 27.16s-16.097 34.567-21.051 72.837-9.9061 132.09 17.336 186.41 106.49 158.02 170.88 185.18 74.296 28.394 74.296 28.394 19.472-5.1478 14.859-14.814c-18.307-38.365-63.157-148.22-63.157-148.22l-27.263 11.111-40.82 4.9746s-34.688-33.296-45.832-53.048-48.292-96.293-34.671-120.98 23.527-24.69 32.195-22.221 26.004 18.518 26.004 18.518l28.48-9.8762-64.39-165.43z" fill="#e1e4df" fill-rule="evenodd" stroke="#000" stroke-linecap="round" stroke-linejoin="round" stroke-width="5.0703"/>
  <path d="m336.38 481.06s-15.224-14.871-35.355-10.662c-24.6 5.143-38.029 39.696-27.536 76.279 10.261 35.77 60.421 126.91 80.323 138.1 20.653 11.621 38.471-0.2919 52.269-5.013 8.5102-2.912 27.274-14.54 27.274-14.54l-12.122-10.662-45.457 2.9079s-2.0203 3.8772-14.142-6.7852-50.58-60.406-65.042-108.1c-7.6677-25.284-2.5631-46.448 6.659-54.921 9.4541-8.6859 21.007-13.398 25.048-11.459s7.0711 6.7852 8.0812 4.8465z" fill="url(#j)" fill-rule="evenodd" stroke="#000" stroke-linecap="round" stroke-linejoin="round" stroke-width="3.9183"/>
  <path transform="matrix(.91342 -.4224 .42567 .90641 108.8 109.24)" d="m216.61 242.12c-1e-5 5.9848-25.002 10.887-56.462 11.071s-58.001-4.4165-59.938-10.39 21.431-11.159 52.772-11.711 59.321 3.7295 63.187 9.669" fill-rule="evenodd"/>
  <path d="m582.57 608.64c0-0.4005 0.93168-1.3099 2.0704-2.0211s14.189-11.873 29-24.805c28.275-24.686 28.519-24.978 25.43-30.384-1.7309-3.0279-1.8381-4-0.44098-4 0.58246 0 0.7809 0.45 0.44098 1s-0.06648 1 0.60765 1 0.94152 0.2842 0.5942 0.6315-0.10562 1.5848 0.5371 2.75 1.1894 2.7125 1.2148 3.4385c0.05608 1.6013-7.7588 10.18-9.2736 10.18-0.59312 0-2.2797 1.575-3.748 3.5s-3.2777 3.5-4.021 3.5-2.3495 1.35-3.5694 3-2.7892 3-3.4873 3-2.526 1.575-4.0619 3.5-3.336 3.5-4 3.5-2.464 1.575-4 3.5-3.3322 3.5-3.9917 3.5-2.4004 1.575-3.8687 3.5-3.2683 3.5-4 3.5-2.5284 1.5706-3.9926 3.4903-3.0621 3.243-3.5509 2.9409-0.88874-0.1208-0.88874 0.4028-0.675 1.211-1.5 1.5276-1.5 0.248-1.5-0.1524z"/>
  <path d="m270.51 438.12c-13.416-2.5915-27.589-15.845-34.943-32.678-5.0646-11.591-3.9532-33.584 2.306-45.634 3.0113-5.7972 9.7749-12.479 15.655-15.464 16.703-8.4818 20.066-9.6507 27.482-9.5515 8.5794 0.1148 15.824 2.5364 25.036 8.3683 12.15 7.6921 20.044 19.844 23.2 35.715 2.8173 14.165 1.552 23.059-4.6942 32.993-2.3614 3.7558-5.1648 7.6549-6.2299 8.6649s-1.9365 2.3573-1.9365 2.9942c0 2.259-5.3576 6.4555-13.361 10.466-7.5412 3.7784-8.8174 4.0963-18.133 4.5166-5.5115 0.2487-11.983 0.0731-14.381-0.3901z"/>
  <path d="m286.52 432.57c8.0555-1.6097 18.335-7.0829 20.402-10.863 4.7808-8.742 11.218-17.785 12.66-17.786 1.1419-8e-4 2.0749-1.5597 3.1017-5.1826 1.911-6.7426 1.8328-11.734-0.31826-20.318-4.0063-15.988-12.182-28.445-22.52-34.312-6.4707-3.6723-20.783-8.3823-23.628-7.7761-6.4908 1.3827-7.4188 1.7088-7.4188 2.6068 0 0.5395 1.988 0.9809 4.4178 0.9809 4.16 0 14.405 3.2446 20.183 6.3921 4.4199 2.4076 10.403 7.8794 14.333 13.108 3.5006 4.6572 9.5833 19.997 8.4149 21.221-0.2704 0.2833-0.78863-0.7755-1.1516-2.3529-0.88587-3.8496-8.1032-15.087-12.547-19.536-13.521-13.536-26.7-17.556-42.503-12.965-16.163 4.696-25.649 19.106-25.762 39.133-0.0355 6.2978 0.48578 10.044 2.012 14.461 5.8514 16.932 21.13 31.302 35.632 33.514 7.4487 1.1361 7.3678 1.1379 14.691-0.3256z" fill="#403c3d"/>
  <g transform="matrix(.95437 0 0 1 -481.18 -1374.3)" fill="url(#i)">
   <path d="m784.85 1801.1c-8.342-2.5467-16.762-9.7573-20.927-17.921-2.9901-5.861-4.2377-16.073-2.6918-22.033 2.909-11.215 11.308-21.117 19.599-23.106 6.9936-1.6777 17.456-0.8477 22.633 1.7956 5.023 2.5649 12.99 11.216 14.302 15.53 0.53028 1.7432 1.6467 4.9694 2.4808 7.1694 4.9392 13.026-2.3736 31.321-14.84 37.126-5.2246 2.4328-15.047 3.1203-20.556 1.4386z"/>
   <path d="m798.77 1795.5c7.061-2.9496 11.51-8.8036 14.179-18.657 1.4777-5.4548 0.80409-10.378-2.0917-15.286-1.1158-1.891-1.7483-3.8919-1.4057-4.4462 0.90769-1.4687-7.2191-9.8922-11.797-12.228-4.996-2.5488-12.967-3.3749-18.399-1.9067-3.3556 0.9069-5.2774 2.4308-9.2817 7.3601-10.585 13.031-10.181 25.964 1.2173 38.98 5.8403 6.6693 19.229 9.6708 27.578 6.183z"/>
  </g>
  <path d="m278.17 188.95c-1.3443-2.8875-2.4486-6.2298-2.454-7.4274-0.0087-1.9334 3.436-5.6378 6.054-6.5105 0.5298-0.1766-2.9057-9.3191-7.6346-20.317-18.986-44.155-31.429-74.314-31.429-76.179 0-3.0463 3.4825-5.4688 16.774-11.668 19.313-9.008 40.165-16.93 45.877-17.429 4.5759-0.3999 5.3217-0.1859 6.6777 1.9155 0.8395 1.3011 7.2185 16.316 14.176 33.366s15.603 37.656 19.214 45.79l6.5651 14.79 4.1655-0.6246c4.8772-0.7314 5.5003-0.1946 8.4448 7.2755 3.2439 8.23 4.7291 7.0326-22.894 18.459-7.975 3.2989-23.959 10.006-35.52 14.904s-22.044 8.9062-23.296 8.9062c-1.7684 0-2.8208-1.1705-4.7201-5.25z" fill="#fff" stroke="#000" stroke-width="4.9"/>
  <path d="m290.98 56.02c-1.4471 0.93622 4.9285 0.2178 8.2738 1.4612 10.586 8.1572 13.786 20.782 18.144 32.261 2.6082 14.031 17.353 40.55 21.988 53.823 4.1916 10.14 3.1714 6.4928 14.487 10.029 3.5222 0.81453 1.4347 6.7474 6.8 5.2238 3.3085-1.3342-1.0113-8.3658-6.0663-8.9713-6.9667 2.4945-7.2479 0.42547-10.962-6.0237-7.8151-14.633-13.377-30.356-16.866-40.649s-6.6534-15.257-7.5737-23.205c-2.5707-8.7932-8.764-19.46-17.054-24.752-0.95143-0.90736-9.8482 0.75031-11.17 0.80378z" fill="#2d371f" opacity=".18539"/>
  <path d="m285.71 195.22 34.286 88.571 88.571-40-40-82.857-82.857 34.286z" fill="url(#h)" fill-rule="evenodd" stroke="#000" stroke-linecap="round" stroke-linejoin="round" stroke-width="4.7"/>
  <path d="m288.91 58.688c-14.306 2.2002-26.663 10.625-40.094 15.25-1.7613 0.18873-4.324-3.549-5.1875-0.375-0.93902 1.4254-4.4756 2.9202-3.4688 5.9688 5.4362 9.286 9.4124 20.115 12.656 30.438 0.03517 3.3972 3.5577 5.506 4.248 9.158 7.9798 18.479 16.675 36.882 23.252 55.842 1.3155 4.6756-7.9831 4.687-5.5625 9.9375 1.2195 4.0142 4.426 10.704 9.696 7.8007 17.758-8.1167 36.381-14.935 53.804-23.832 5.2044-2.0354 8.8249-9.0122 4.4062-13.562-4.5863-2.1163-24.709 9.2524-29.299 10.009 2.9003-1.6219 24.978-12.126 21.33-16.321-3.7555-5.6866-3.9368-13.183-7.2319-19.215-3.8502-9.7246-6.8173-19.765-11.206-29.191-1.338-6.1054-4.7609-11.557-6.625-17.5-4.6071-7.7037-8.882-15.944-14.5-22.969-1.7586-1.3334-4.0604-1.6748-6.2188-1.4375z"/>
  <path d="m303.28 283.9s31.718-9.7106 61.004-22.568 44.575-24.971 44.575-24.971l85.425 204.58s-20.319 12.934-45.319 23.648-54.681 19.209-54.681 19.209l-5.7143-20h-11.429l-73.861-179.89z" fill="url(#g)" fill-rule="evenodd" stroke="#000" stroke-linecap="round" stroke-linejoin="round" stroke-width="5.8"/>
  <path d="m411.17 478.58 7.3845 18.051 11.487-0.8205 8.205 23.794 4.923 2.4615 18.871 45.948 44.307-18.871-22.153-47.589 2.4615-6.564-9.846-22.974 4.923-1.641-6.564-18.871s-15.179 8.8204-31.179 15.589-32.82 11.487-32.82 11.487z" fill="#4d4641" fill-rule="evenodd"/>
  <path d="m462.47 563.55c-2.6847-4.8084-4.8627-9.9475-6.473-15.214 0.00843-3.4604 9.2707-3.4021 5.5301-8.2775-3.0125-3.8773-9.036-2.507-11.975-6.2793-3.2472-5.3392-4.6082-11.875-8.901-16.538-2.8912-0.96219-4.402-5.0318-3.9078-2.9693 0.17821-3.7102-2.9989-7.9609-4.4772-11.709l-4.5997-9.2633c-2.9524-0.0047-8.9136 1.2029-10.231-2.8796-0.42404-3.7019-5.5938-8.916-2.2679-11.625 14.663-5.2007 28.943-11.446 43.593-16.678 5.4713-3.0505 7.0998 3.2175 8.7228 7.0248 1.4609 3.3142 6.1317 5.2698 1.9014 8.5491-2.0125 5.6842 1.3611 11.408 3.293 16.641 0.64175 4.5698 4.8734 5.0295 8.17 6.3426 1.7473 4.5078-5.868 6.4447-2.4135 11.456 1.9038 5.8965 4.4239 11.577 7.08 17.147 2.3739 6.5903 5.5779 12.897 9.2033 18.883 3.997 2.9059-5.4962 4.6353-6.5841 7.6379-4.966 3.0567-10.363 5.4846-16.124 6.5036-2.8652 0.08717-7.2456 4.161-9.5403 1.2479z"/>
  <path d="m670.06 882.64c2.2594 0.1348 5.001 1.9123 4.423 3.5176-0.40984 1.1384-13.269 20.226-13.269 20.226s-231.77-23.744-245.04-26.382-78.73-19.347-90.23-25.502c-10.82-5.792-36.711-17.148-36.269-25.502 0.48875-9.2313 54.704-76.29 80.5-107.29 25.433-30.559 48.913-16.939 56.615-1.7588 5.5997 11.037 6.2843 54.512 7.9615 70.351 1.7692 16.708 8.7371 48.478 18.577 59.798 10.208 11.745 80.5 18.467 116.77 21.985s97.159 10.385 99.961 10.553z" fill="url(#f)" fill-rule="evenodd" stroke="#000" stroke-linecap="round" stroke-linejoin="round" stroke-width="4.2124"/>
  <path d="m402.86 702.64c8.5743 1.72 20.226 5.9699 23.698 14.295 4.9341 9.351 3.9347 17.746 5.7278 27.744 1.528 10.149 1.1357 20.139 2.5415 30.319 3.1791 16.627 3.9361 34.845 9.0466 50.375 2.1236 7.5965 2.1754 17.36 9.721 21.762 7.0144 4.7641 14.294 9.588 23.044 9.8971 5.9769 1.7623 13.943 0.32883 18.888 2.8519-5.3045 5.2632-11.878 6.7256-19.143 4.951-9.594-1.3859-20.577-1.33-27.78-8.8906-7.8963-2.1734-11.998-9.8992-13.142-17.66-3.191-10.085-1.5547-20.762-3.4808-31.056-2.2264-15.92-6.5577-34.661-8.0919-47.538s-0.70569-17.429-2.3354-29.054c0.01216-9.542-8.0713-20.526-16.691-23.107-6.9349-2.0772-21.136-1.6798-13.197-2.7501 4.6734-0.39857 9.3467-0.79715 11.193-2.1382z" opacity=".21348"/>
  <path d="m441.72 655.03 61.17 141.29s1.4266 3.8364 2.1653 6.4959c2.7066 9.7439-9.7439 14.616-9.7439 14.616l-8.6612 1.0827s2.1653-3.248 1.624-5.4133-67.666-151.57-67.666-151.57l21.112-6.4959z" fill="url(#e)" fill-rule="evenodd" stroke="#000" stroke-linejoin="round" stroke-width="4"/>
  <path d="m375.48 688.47c-1.0543-1.1427-2.6715-1.3318-7.047-0.8239-7.5489 0.8761-8.8418-0.3812-13.358-12.99-3.3488-9.3499-4.1103-12.645-3.8375-16.608 0.0609-0.8842 8.0138-7.5687 17.673-14.854s17.314-13.496 17.009-13.8-5.4525 1.9929-11.441 5.1044c-9.3185 4.8416-11.67 5.6572-16.309 5.6572-6.0639 0-7.8212-1.1439-7.8212-5.0914 0-2.2074 0.7207-2.9798 4.0072-4.2948 2.2039-0.8818 7.5569-2.0005 11.896-2.4859 8.0184-0.8971 16.554-4.4582 15.768-6.5788-3.6968-9.981-3.5594-10.62 2.8965-13.476 5.5974-2.476 5.81-2.4997 5.0679-0.5659-0.4784 1.2468 0.1076 1.3976 3.3908 0.8726 3.8228-0.6113 4.0242-0.503 5.4615 2.9369 0.8207 1.9643 1.1987 4.3842 0.8399 5.3774-0.4311 1.1937 0.2502 0.8562 2.01-0.9956 1.4642-1.5409 2.6622-3.5085 2.6622-4.3725 0-1.1575 0.3346-1.2932 1.2716-0.5156 0.9347 0.7758 5.5044-0.9414 17.25-6.4823 8.7881-4.1456 16.52-8.0529 17.181-8.6828 0.9314-0.8872 0.7767-1.7068-0.6864-3.6367l-1.8887-2.4914-9.8136 4.8103c-9.1275 4.474-10.268 4.788-16.314 4.4914l-6.5-0.3189-0.3151-3.2738c-0.279-2.8983 0.0746-3.4367 3.0822-4.6933 1.8685-0.7807 5.8353-1.7091 8.8151-2.063 6.8954-0.8191 11.585-2.2102 15.591-4.6252 3.0384-1.8316 3.1129-2.0279 1.7562-4.6287-2.661-5.1008-1.8922-7.8604 2.9865-10.72 5.1789-3.0351 10.584-4.785 10.584-3.4267 0 0.5116-0.5625 0.9445-1.25 0.9619s-0.0421 0.9334 1.4342 2.0354 3.2123 3.6043 3.8579 5.5604c0.7294 2.2101 4.3558 13.57 4.9377 12.988 1.6774-1.6773 52.578-17.724 64.068-21.378 6.8487-2.1777 20.327-6.9107 29.952-10.518 63.014-23.615 61.174-22.989 69.031-23.48 5.62-0.3516 7.8061-0.1245 8.6137 0.8947 2.1233 2.6794 10.355 22.073 10.355 24.396 0 1.8501-6.1913 7.7736-28.396 27.168l-28.396 24.802-33.354 13.257c-18.345 7.2916-45.954 17.909-61.354 23.594-27.464 10.138-28.041 10.409-30.141 14.116-2.4994 4.4125-3.9359 5.4919-7.359 5.5293-1.375 0.0151-4.4584 1.147-6.852 2.5154-5.0509 2.8874-5.148 2.9096-5.148 1.176 0-1.81 5.4606-5.6881 8.0092-5.6881 2.6033 0 7.9908-2.7142 7.9908-4.0257 0-1.4628-0.3105-1.3721-14.216 4.1492-9.2718 3.6815-12.755 5.5108-12.375 6.5 0.2906 0.7571 0.1299 1.3765-0.357 1.3765s-1.0741-0.5625-1.3049-1.25c-0.3127-0.9315-2.054-0.6473-6.8333 1.1153-3.5276 1.3009-14.044 5.1286-23.37 8.506-13.774 4.9882-17.058 6.5429-17.5 8.2833-0.4755 1.874-0.7151 1.9566-1.912 0.6595z" fill="#43433d" stroke="#000" stroke-linecap="round" stroke-linejoin="round" stroke-width="4.5"/>
  <path d="m378.82 677.18c-1.9333-2.7558-7.5349-17.084-7.5349-19.273 0-1.39 9.3493-6.4772 11.904-6.4772 0.46588 0 3.4906-1.2024 6.7215-2.672 6.7852-3.0863 5.2439-4.2576-2.5549-1.9416-8.1131 2.4093-5.8923 0.1369 5.1794-5.2998 10.509-5.1605 14.424-6.0774 18.686-4.3768 1.9972 0.7968 3.2125 0.4476 6.75-1.9398 2.3728-1.6015 4.3142-3.3298 4.3142-3.8408s0.91114-0.9292 2.0248-0.9292c1.199 0 2.3853-0.9483 2.9088-2.3252 1.6111-4.2374 10.732-9.1268 15.196-8.1462 2.0521 0.4507 2.9821 0.1304 3.7415-1.2885 1.211-2.2627 7.2835-4.2401 13.021-4.2401 4.714 0 15.668-3.2027 38.107-11.142 4.675-1.654 13.566-4.2936 19.757-5.8658s12.44-3.7886 13.885-4.9253c3.4021-2.6761 6.3579-2.7072 6.3579-0.0669 0 2.4894 0.69751 2.4919 6.1408 0.022 2.3976-1.088 6.1592-1.9903 8.3592-2.0053 2.6705-0.0182 7.1576-1.5576 13.5-4.6314 9.7999-4.7495 17.803-7.6252 19.059-6.8487 0.39476 0.244 2.8196 5.2428 5.3885 11.109 3.7994 8.6755 4.4265 10.887 3.3615 11.853-0.72005 0.6532-6.1295 3.1291-12.021 5.5019-6.0371 2.4315-10.443 4.7496-10.095 5.3117s0.11189 0.6856-0.54389 0.2803c-0.63819-0.3944-2.7282-0.1502-4.6444 0.5427-1.9615 0.7093-3.0048 1.5561-2.3874 1.9376 0.79366 0.4905 0.79086 0.8668-0.01011 1.3618-0.60872 0.3762-1.1068 0.2075-1.1068-0.375s-0.47656-1.059-1.059-1.059-0.73793 0.5195-0.34549 1.1545c0.4472 0.7236 0.27376 0.8827-0.46467 0.4264-1.5971-0.9871-10.258 2.4036-9.4561 3.7018 0.36679 0.5934 0.14296 0.7226-0.53071 0.3063-0.64077-0.396-8.2478 1.9944-16.905 5.3121s-25.864 9.8252-38.239 14.461-25.65 9.7607-29.5 11.388-10.6 4.1879-15 5.6899-8.993 3.365-10.207 4.1399c-2.5181 1.6078-27.689 10.903-40.095 14.807-10.886 3.4255-19.414 3.5681-21.663 0.3623z"/>
  <path d="m421.91 605.85c1.9098-2.2729 4.7801-3.7846 7.0563-5.4369 2.1864-2.0915 4.5782-3.5167 6.6173-5.5768 1.6485-0.88895 4.3408-3.2172 3.1065-4.8468-3.1492-1.9996-5.8843 0.99596-8.1728 1.897-2.6332 1.0605-4.6748 2.3827-7.1102 3.4911-2.5068 1.0908-4.5134 2.4474-7.1844 3.5172-2.79 1.2927-7.0675 1.8189-10.432 1.1763-2.8801-1.034-3.4373-5.8689-0.32898-6.0388 0.99707-1.2482 3.537-0.74726 4.4438-1.798 2.251 1.827-3.2544 2.2371-4.2728 3.5608-2.5143 3.1003 3.8837 3.7422 5.8991 2.7923 3.0627-0.65988 6.9368-1.5253 8.5403-4.4453-0.52658-3.025-6.4226 0.19215-6.4513-2.5248 3.6035-0.97511 7.9386 1.496 10.981-1.3286 2.7801-0.20801 5.7258-0.53659 7.2799-2.8287 2.9288-0.70704 4.514-3.7183 2.4406-5.9146 0.41438-1.1682 0.1785-3.4035-1.4922-2.1963 0.55403-1.714 0.77014-3.6093-1.075-3.5051-1.0072-3.5885 7.9569-0.40518 4.7028-4.541 0.52378-1.2192 4.0592-2.8562 4.379-1.8298-0.97239 0.59051-3.2518 2.3203-0.62394 1.7108 1.4615-0.69798 5.3061-0.23888 5.5731-1.0279-1.2144-0.36662-4.2858-1.4405-1.106-1.3058 3.1906-0.01463 3.2554 3.556 4.523 5.073 0.57742 1.8313 1.3752 3.2422 3.7932 3.2174-1.8776 0.02003-3.2838 3.4573-0.39411 1.9445 1.7903-1.9976 10.89 4.4795 3.1491 9.5202-1.8351 1.1136-7.3472-5.957-7.0445-9.5494-0.14783-2.7671-0.69853-6.7041-4.0411-7.2283-3.3266-0.79631-7.0423 2.5306-5.5091 5.9428 0.88333 2.0016 4.9445 6.0749 1.4887 7.2365-3.1014-1.0718-3.2816 2.565-1.0292 3.9058 2.6891 3.7826-3.7047 5.8384-5.6625 8.3672-3.8987 3.2375-8.2492 5.868-12.501 8.5849l0.094 0.04548 0.36318-0.06029 1e-5 -2e-5z"/>
  <path d="m367.91 647.85c1.3113-2.4072 4.3416-2.5189 5.7374-4.9641 2.656-0.39704 3.4095-3.4901 6.1277-3.9977 0.97207-2.6889 4.3358-2.2962 4.5149-5.022 3.5598-1.6633-3.5565-4.0595-4.2941-1.429-1.5801-0.81182-1.5646 1.6305-3.3094 0.94508-0.24693 1.7039-2.2679 0.27155-2.6906 2.0371-1.5889-0.76739-1.5631 1.6376-3.3094 0.96293-0.24694 1.7039-2.2679 0.27154-2.6906 2.0371-1.5889-0.76744-1.5631 1.6376-3.3094 0.96292-0.24693 1.7039-2.2678 0.27155-2.6906 2.0371-2.5183 0.00223-5.9444 1.5254-9.1011 0.77077-3.0278 0.53538-5.6491-6.3755-1.5074-5.7684 0.23628-2.3562 3.146-0.04867 4.1446-2.3345 4.3989 1.5932-4.6576 2.3678-4.7476 5.0189 1.493 3.0436 6.3626 1.5045 9.1342 0.99193 1.9138-0.61265 8.2589-3.1374 5.4495-5.1055-1.3183-0.51387-7.1627 0.30698-5.7469-1.3753 3.2399-0.90634 6.9282 1.0199 9.9175-0.53055 1.177-2.1301 6.7263 0.17511 7.5485-3.3524 1.8173-0.49416 6.497-2.9643 3.2309-5.5588-0.1133-1.5911 0.96819-4.0927-1.4879-2.8265-0.031-1.3441 1.5835-4.0658-0.90756-3.1216-2.1328-4.3438 7.0568-0.38629 5.003-4.3828-2.7556-1.2121 7.7582-4.6506 2.6822-1.4725-3.2917 2.256 4.5364-0.44479 6.0534 0.22269 2.1524-0.43719-5.4104-1.6163-1.4258-1.7275 2.4048-0.24661 4.3269 2.0588 3.8408 3.8484 1.8735 0.08033 0.4041 2.2519 2.1834 2.6636-1.3308 2.2957 5.5121 1.0813 1.4188 2.3283-2.9964 3.0076 2.331 1.728 2.8248-0.71658 1.6771-1.6373 4.6696-0.82946 5.7164-2.8798 1.5867 0.779 1.5635-1.6357 3.3094-0.95825 0.24694-1.7039 2.2678-0.27155 2.6906-2.0371 1.7074 0.85345 1.4162-1.8762 3.5207-1.1872 3.4443-1.0331 6.3884-3.665 9.8588-4.3236-6.3694 4.424-13.67 7.3634-20.363 11.286-3.1525 1.6774-6.8413 4.9307-10.432 3.8996-0.19476-3.408-0.22199-9.1059-4.976-9.0107-4.3258-0.1633-6.6122 4.2801-3.6593 7.6125 1.5257 2.4218 3.8085 6.4884-1.015 5.4524-4.4386 1.6814 4.5367 5.1317 0.06471 7.833-10.492 9.9682-19.993 13.772-17.309 13.173z"/>
  <path d="m501.72 770.51c-4.7378-1.4773-5.7806-8.6918-8.6752-10.394-3.3659 4.8426-12.434 7.4292-17.8 3.8615-8.066-5.2981-9.2672-15.915-7.8834-24.683 0.67598-3.5052 5.2296-1.0355 3.7973-5.9472 3.0058-6.8189 10.034-1.9983 14.711 0.5107 3.4455 1.1675 5.0336-6.637 7.0807-9.3153 1.0803-11.058-0.16908-23.271 6.6009-32.87 6.5782-8.8162 17.387-13.858 28.062-15.552 15.013-1.1726 30.207 0.2603 44.752 4.1266 7.7174 0.38311 13.39 6.3222 20.117 9.4087 11.598 6.3969 22.604 15.347 28.631 27.366 5.6944 12.838 2.4685 28.531-5.884 39.428-9.9325 11.195-26.117 12.643-40.163 12.551-8.7199 0.133-17.409-0.849-25.877-2.8869-7.3594 1.1425-14.175 5.4723-21.914 5.6744-8.4299 0.8788-17.497 1.8954-25.554-1.2797z" fill="#fff" stroke="#000" stroke-linejoin="round" stroke-width="4.5"/>
  <path d="m540.62 681.72c-14.544 0.79009-32.216 2.909-40.875 16.344-4.7889 8.4042 0.82913 18.325-2.25 27.094 0.1841 9.5733 7.5091 18.021 16.438 21.062 4.3869 1.9175 7.986 6.452 6.6562 11.438-7.5908 2.8671-18.506 4.1133-24-3.125-1.9683-3.0097 1.9026-7.3735-0.3125-9.75-4.4851-0.87077-12.405-2.408-14.656 2.8125-1.3881 4.7677 3.014 8.724 7.6562 7.875 8.3439-2.0344 10.595 8.2674 15.406 12.812 7.6711 4.3905 17.233 1.247 25.355-0.23097 6.9178-1.5713 13.883-8.5409 21.145-3.8315 16.858 4.1185 35.886 4.1995 51.219-4.0312 1.0473-2.7733 4.7245-7.1012 7.1875-3.0938 4.1894-0.6951 3.7145-7.4884 5.8125-10.719 2.2919-5.2483 3.4508-11.069 3.0625-16.812-1.0818 7.5257-2.5552 16.422-10.156 20.062-6.3711 5.3451-14.082 10.209-22.812 8.5678-4.5001-0.23163-9.9891 0.03025-13.157-3.7865 1.9186-5.3744-3.8803-10.218-1.8125-15.562-11.116-16.414-25.773-30.424-34.031-48.625-3.1481-2.6262-1.8018-4.4414 1.9375-4.875 2.7963 0.27845 2.1709-2.8115 2.1875-3.625zm-25.156 11.844c-5.3998 2.4083-8.8247 8.0822-15.125 8.4688 1.9088-8.2163 10.72-12.933 18.656-12.156l-3.5312 3.6875z" fill="#2c2a26"/>
  <path d="m316.71 476.76c-7.5254-1.2779-15.221-0.80253-22.809-0.7086-1.9622 0.02369-8.0881 3.09-3.5968 0.82415 5.1485-3.0768-2.3765 1.9155-3.5146 3.7403-4.1387 4.6792-4.4084 11.453-8.0089 16.504-1.9514 2.5792-3.2585 5.5386-3.4264 8.7999-0.35488 4.3145-0.51899 8.6478-1.4916 12.887-0.1673 4.0293 1.2184 7.9111 1.5847 11.905 0.7488 4.9121 2.442 9.5876 3.4705 14.428 0.96148 4.4505 4.0125 7.8127 6.5201 11.432 2.7789 6.5197 5.3616 13.134 8.071 19.69-1.8237 5.4288-7.2511 3.5234-8.5877-1.0563-3.0591-6.0425-9.4048-10.536-10.035-17.673-0.55894-4.8953 5.5681-6.1078 8.9887-4.0982 2.6779 1.3567 9.0268 5.3791 6.1131 8.4771-2.3049 1.3046-4.1854 1.8385-4.0939-1.4578-2.3519-3.8349-2.3949-8.5889 2.652-10.071 2.6439-0.11882-0.69638 7.9781-3.7006 3.4879-4.3066-3.8683-7.3807-8.8615-10.836-13.453-2.9581-4.2309 5.3941-11.186 7.1553-4.6668 3.1192 3.7742 5.9743 7.7645 9.2325 11.421 1.3755 2.3763-7.0035 6.3789-3.9813 1.9603 0.53603-6.7712-3.4359-12.749-7.586-17.722-1.1857-3.2164 6.9575-4.3166 7.5975 0.02461 0.74177 2.9629 4.7855 6.3061 4.3521 8.2791-4.94 4.0559-6.8092-3.6703-6.9847-7.3412 0.48893-4.9238-5.7551-9.6117-1.6779-13.931 4.6656-3.4093 7.65 3.2727 10.036 6.2046-1.2533 1.9705-6.4157 5.294-4.7912 0.5925-0.62098-5.4468-0.91382-10.957-0.06244-16.397 0.32587-4.8963 2.7075-9.3185 5.8888-12.956 2.7207-4.7122 3.3433-10.856 8.0337-14.282 3.7637-2.5082 6.9182-6.0601 11.184-7.7414 3.2413-1.2215 5.9886 1.2268 2.0296 2.8337-2.3644 1.5492-7.2095 5.2272-8.6034 4.9557 1.1774-1.3406 7.0414-4.4362 2.1604-2.8018-5.7771 1.3897-11.495 3.0472-17.307 4.2809 1.7126-1.1093 7.2593-4.3416 2.4607-1.2307-3.532 2.2102-7.2412 4.1644-10.62 6.6078 5.4205-2.9168 10.413-6.5879 15.253-10.378-1.4786-0.96936-7.3568 1.1487-2.8175-0.22786 1.5427-0.69023-2.8991 3.0454-2.9508 4.7289-2.0028 3.801-3.4234 8.172-2.6525 12.467 0.84937 2.9338-5.8441 8.3919-3.6128 2.923 2.4218-3.892 4.687-7.9413 7.5628-11.525 0.64958-1.6402 7.9409-4.8134 3.3479-1.5261-3.9342 3.9918-5.7269 9.4486-8.9498 13.888-1.0028 1.6453-6.5688 7.6814-5.0865 2.2968 1.9988-5.356 4.6011-10.74 8.6868-14.812-0.86859 2.2133-4.7389 7.77-7.4503 10.873-1.0932 1.6417-5.4628 4.4296-5.4869 3.9877 1.9052-2.1038 6.3573-2.6999 4.5836 1.3245-2.2961 4.9192-2.363 11.495-4.8808 15.598-2.0964 2.2493-6.226 1.7667-3.6398-1.8539 1.8065-2.6814 5.3622-9.7561 8.9524-7.0979 0.68705 5.5061-0.20042 11.241 0.59452 16.705 1.6501 3.5913-2.5882 9.8902-6.4169 6.9473-2.5921-4.3504-3.3198-9.6223-5.5542-14.191-0.18412-3.0244 6.9842-5.4071 6.6706-0.18469 0.59691 2.7821 1.6033 6.5606 3.5169 7.894-2.0447 0.71194-7.8448 4.0644-4.2267-0.30659 3.5794-3.7249 3.6853-8.8538 3.5389-13.686-0.34099-6.0166 4.1316-10.788 5.1238-16.498-0.1414-1.9778 5.4418-6.1879 2.568-2.1904-3.3877 3.2468-5.0716 7.6452-6.6038 11.971-2.0292 3.5655-8.8914 5.7423-7.1922-0.64082 0.8303-6.7627 6.5353-11.254 10.068-16.659 2.4279-3.5465 6.3296-5.5454 9.3873-8.3972 3.6064-4.3424-6.772 0.51467-6.8002 0.26926 1.7452-0.85123 4.5914-2.6315 1.5732-0.42773-2.1736 2.1543-6.3002 5.8229-3.5878 8.8537 2.6337 0.04726 3.5815-0.71211 0.71782 1.0094-4.8246 2.8049 2.7957-2.5047 4.1193-3.3895 3.4772-2.0856 6.6341-5.0495 10.715-6.2381 2.6014-0.45809 8.2101-3.5708 9.2526-0.78182-4.3029 4.4771-10.427 6.7003-14.718 11.244-3.0769 2.5841-2.8208 8.079-7.7751 8.4956 2.2966-3.6676 5.4276-6.7914 7.6674-10.536 1.2048-2.0869 4.8995-4.6911 5.1807-5.889-5.3558 0.98847-9.9338 4.3125-15.039 6.0459-0.87593-1.1739 4.9833-3.8466 2.0136-0.64768-3.6335 5.391-2.1766 12.258-2.4842 18.375-0.0072 3.4699-0.13193 7.4496-1.8482 10.41-1.8173 2.5997-7.4966 5.6929-6.3632-0.16404-1.0188-3.3333 6.0041-10.699 6.1923-4.0444 0.58583 6.7293-1.8294 13.167-4.4271 19.229-1.7158 3.1004 0.54741 5.137 1.2603 7.6227-1.1699 3.2498-6.0519 0.78326-2.0359-0.37924l4.8666-2.1548c-1.3042 4.0919-7.639 8.4423-10.54 3.4487-1.531-4.9015 2.0996-9.3454 3.2886-13.919 2.2414-5.5108 0.77314-11.765 3.1137-17.22 3.746-2.9901 5.9211 4.1842 4.0158 7.0359-0.85605 3.9997-7.2271 3.9398-4.2959-0.69298 1.614-7.7362-1.012-16.045 2.1162-23.511 3.2191-5.8578 10.193-7.4438 15.818-10.01 3.3014-1.3291 7.1695-4.5788 10.726-2.5704-1.6539 3.3581-6.6532 6.9594-8.5667 11.233-2.9218 4.1439-6.4874 8.1594-11.451 9.7824-2.0585-4.3456 2.358-7.5708 5.1878-10.091 3.7619-3.1284 8.5411-5.0071 12.059-8.3675-2.1156-0.01841-7.7501 2.4268-8.2904 0.41163 1.5169-1.504 4.7307-1.3918 1.6295 0.44569-1.4526 1.1191-6.8655 4.282-2.5804 1.771 1.7352-1.0095 4.9671-2.989 1.603-0.73864-4.6743 3.1249-9.1216 6.939-14.42 8.8877-5.6203 0.85221-4.2229-6.4926-1.16-8.7397 3.2456-3.552 7.7366-5.6588 11.884-7.9695 2.988-1.048 7.7829-3.771 10.038-0.46275-2.0014 3.1792-6.4885 4.3818-9.0832 7.3114-4.0429 4.1052-7.2633 8.9629-10.75 13.54-2.759 3.4215-0.38941 9.684-5.1549 11.539-4.4936 2.056 0.28441-4.8242 0.83778-6.9511 2.7352-4.5132 7.0612-8.0044 11.709-10.411 5.0839-1.1362 0.49451 5.9129-0.15773 8.2589-2.1738 4.1843-3.6833 8.7007-3.2596 13.48 0.29562 6.3445-2.6019 12.789-7.4138 16.883-4.1306 3.0537-6.8233-2.5716-7.6518-5.9005-3.5369-4.081 1.9245-10.194 5.5152-8.1492 1.5375 4.9705 4.217 9.8888 4.6114 15.048-0.87211 4.3747-7.0757 2.6129-5.1716-1.542-0.12038-5.6575 0.04285-11.327 0.03978-16.979-0.35068-6.0983 8.7014-3.6274 5.5073 1.3982-1.7044 3.1625-7.7672 7.6923-9.9101 6.4965-0.37994-7.9226 2.3977-17.139 10.244-20.552 1.3885-0.50792-3.0802 2.4755-4.3853 3.1742-4.4951 1.7286 0.9001-5.0733 1.7294-6.4573 2.7052-3.9552 4.8161-8.5299 9.7688-9.9777 2.638-2.1838 6.5054-0.41 3.844 2.9698-2.9405 5.2437-6.6694 10.263-11.45 13.956-1.9979-1.7197 2.7851-6.7168 4.242-9.0927 3.3666-4.0896 6.7192-8.4357 11.21-11.338 1.6988 2.055-2.8979 6.5922-4.1616 9.2279-2.5959 3.7166-5.1905 8.1393-9.6333 9.7852-3.7956-1.647-1.168-7.5686-0.95746-10.899 1.587-4.3913 3.3712-9.2789 7.7309-11.639 3.5252-2.1246 7.0502-5.7055 11.43-5.2925 3.2007 3.6933-5.0477 5.3038-7.1779 7.6277-4.7319 2.7227-9.3252 5.821-14.403 7.8523 2.4068-2.7769 6.1929-5.0121 9.7155-6.6169 5.896-2.5339 11.839-5.4074 18.247-6.3069 4.1405 1.0307-4.8895 6.5003-4.1037 6.1935 2.6578-2.1445 5.3937-4.2425 8.353-5.9466-1.021 2.7673-7.3255 1.5222-2.976-0.24628 3.8037-0.63748-2.9015 2.5894-3.6699 3.7396-5.0913 4.1123-4.8618 11.546-9.2357 16.216-4.1207 4.6492-4.1739 11.137-4.5591 16.982-0.16955 4.0736 0.86286 8.0956 0.59824 12.166-2.9247 2.1387-7.945 5.5005-9.7138 0.1687-3.778-2.4765-2.2615-9.9218 2.8025-7.1613 2.0217 4.3191 3.4514 9.2495 5.1614 13.89 1.6418 4.3387-0.61576 9.4425-5.1645 10.765-3.4437-0.51531-6.2415-5.815-7.7357-9.2598-1.7232-3.647 4.8077-9.3499 6.6333-4.7993 3.0944 3.8791 5.8556 8.1192 6.6815 13.114 2.1297 5.2426-1.2051 9.6258-6.5753 9.9892-3.7417-2.329-5.5547-7.1186-8.5891-10.354-1.8674-2.6297-6.4692-5.2562-1.097-6.4816 5.1364-2.1309 5.4377 5.6025 8.3346 8.0764 2.5183 3.9899 5.8741 7.862 6.6502 12.63-1.4889 2.6076-8.2082-2.1436-7.2084-3.1054 3.1416-2.9292 8.2209-2.1547 7.9162 2.8834 2.5875 4.4683-1.3742 7.6814-5.3869 9.0228-2.9532-2.2163-4.8332-5.8299-7.54-8.4592-2.6985-1.7286-1.5921-7.6077 1.6812-4.0217 1.3255 4.2373 1.8441 8.8841 5.3396 12.314 2.4335 3.4964 5.5998 6.5942 7.3053 10.537 1.3022 3.8822-5.9609 10.018-6.2746 3.4166-2.6838-6.27-4.9579-12.733-7.882-18.884-2.8305-3.3605-5.2947-7.0431-6.3028-11.386-1.0173-4.8603-2.7627-9.5375-3.4689-14.475-0.38697-4.8887-2.5616-9.777-1.0431-14.676 1.3473-5.9712-0.20994-12.818 3.6724-18.022 3.4375-4.6516 4.5403-10.447 7.0782-15.533 3.8774-5.6658 10.033-9.1574 16.009-12.214 5.0397-2.2014 10.663-0.92633 15.977-1.2507 3.8772 0.11832 9.2626-0.32606 12.018 1.7902l-6.1498 3.1335z" fill="#110" fill-opacity=".27374"/>
  <path d="m631.09 533.98-47.683 43.355 8.9968 21.678 41.386-39.585s0.89969 0 5.3981-3.77-6.2978-19.793-8.0972-21.678z" fill="#2a2c23" fill-rule="evenodd"/>
  <path d="m400.25 765.37c4.1874-1.5734 6.8258-4.6961 8.4088-9.9523 0.87633-2.9098 0.47684-5.5358-1.2404-8.1539-0.66167-1.0087-1.0368-2.0761-0.83361-2.3717 0.53828-0.78345-4.2811-5.2768-6.9959-6.5226-2.9628-1.3596-7.6899-1.8003-10.911-1.0171-1.99 0.48377-3.1296 1.2967-5.5043 3.9261-6.2774 6.9509-6.0379 13.85 0.72192 20.793 3.4635 3.5576 11.403 5.1587 16.355 3.2982z" fill="url(#d)" stroke="#000" stroke-linejoin="round" stroke-width="4.3"/>
  <path d="m393.94 768.8c4.1874-1.5734 6.8258-4.6961 8.4088-9.9523 0.87633-2.9098 0.47684-5.5358-1.2404-8.1539-0.66167-1.0087-1.0368-2.0761-0.83361-2.3717 0.53828-0.78345-4.2811-5.2768-6.9959-6.5226-2.9628-1.3596-7.6899-1.8003-10.911-1.0171-1.99 0.48377-3.1296 1.2967-5.5043 3.9261-6.2774 6.9509-6.0379 13.85 0.72192 20.793 3.4635 3.5576 11.403 5.1587 16.355 3.2982z" fill="url(#c)" stroke="#000" stroke-linejoin="round" stroke-width="4.3"/>
  <path d="m333.93 734.56c-23.773-22.103-43-48.643-61.553-75.12-13.697-24.949-26.51-50.62-36.699-77.21-6.0726-22.977-11.047-46.39-14.318-69.837 4.0609-5.8422-2.9722-15.583 2.7774-23.906 1.2828-7.6511 3.265-16.546 10.975-15.704-4.6154-6.3141 4.8501-12.021-5.0486-11.076 2.9654-7.9675 4.476-11.408 12.958-16.991 17.238-13.495-10.891-24.832-11.993-39.073-3.6473 0.35178-4.3313-13.369 0.50698-0.64937 3.3944 9.0104 22.247 24.828 13.097 19.412 8.3092 6.2495 24.623 10.407 38.951 8.5674 20.397-0.5729 34.019-19.156 40.914-36.432 5.2376-23.705-8.8434-50.416-31.666-59.243-8.71-11.004-35.646 2.7444-35.694-0.39449 4.9921-3.5399 12.689-5.3132 20.405-5.5418 13.418 1.4985 12.43 2.4285 27.817 8.5646-0.84857-8.8535 20.148-56.52 27.461-53.947-4.9353 10.793 13.294 16.343 15.303 25.848 12.14 10.826 19.408 25.104 27.712 38.774 8.2821 14.044 14.878 29.472 17.242 44.658 4.5446 13.683 4.6325 29.671 12.203 42.111 8.4456 13.236 16.344 38.598 37.319 24.545 20.192-6.1721-12.026 5.6463-19.233 8.1276-10.342 7.0023-16.936-6.6364-21.196-3.9154-9.6137-4.0611-3.7813-18.329-11.749-24.172-1.0322-7.2679-7.2098-5.3304-2.7232-12.746-8.9727-9.4651 0.89519-22.729-2.6372-30.307-8.738-15.21-8.1419-35.844-18.945-51.004-5.559-8.5304-21.677-30.862-28.978-18.763-10.949 4.8228 4.6284 24.555-7.7878 25.654-11.5-22.228-11.141-17.572-12.626-10.319 6.7791 6.9387 7.0122 20.936-1.5279 6.0902-4.2367-7.9439-34.038-21.692-13.233-9.9713 18.692 11.562 28.7 36.087 24.692 57.454-8.242 24.007-33.569 41.551-59.272 36.432-5.8025-0.87939-23.098-8.0979-8.3717-1.1235 12.831 1.521 36.037 3.4366 23.568 18.104 5.583 5.2261 0.74359 18.096-8.3118 18.236-3.3736 14.228-13.186 25.432-11.667 42.039 1.4843 19.996 6.8492 39.814 13.852 58.54 4.6596-8.0048-13.133-35.908 1.9486-45.161 13.118 8.4597 7.8446-13.686 9.0574-21.45 0.48579 17.707 2.2886 35.378 7.6804 52.345-7.6519 3.139-15.633-19.706-15.123 0.13859 1.4998 25.526 13.127 49.278 22.825 72.331-10.105-2.6179-12.06-27.961-21.881-24.839-11.823-4.6851-7.6316 5.1899-1.4598 3.8056-6.71 4.2024 4.9327 11.267-8.8673 8.888-7.8558-0.13432-13.48-2.7248-5.4611-7.9508-4.6632-6.4301-5.1656-13.733-11.283-10.904 1.3587-4.4635-5.7423-12.127-4.7928-2.7585 6.2623 4.6311 16.849 20.534 1.9356 12.84 0.94736 17.422 15.669 25.375 17.873 41.598 7.7062 9.2696 13.847 21.803 21.69 30.33 5.219-2.3526 5.7499 17.564 16.001 18.585 2.6038 11.364 15.491 12.665 20.271 23.842 5.9386 7.1162 17.794 18.713 19.501 23.517-4.3815-3.3416-8.3746-7.1554-12.436-10.869z" opacity=".0618"/>
  <path d="m299.31 188.24c3.5554 2.3032 6.9304 4.857 10.212 7.5295 3.7471 2.8945 5.9685 6.6529 7.6767 10.959 1.0574 4.7936 0.62001 9.7006 1.3793 14.547 0.19624 4.7706 2.3333 8.7802 4.3679 12.969 2.3362 4.8998 5.7632 8.877 7.7726 13.901 1.1911 4.6246 3.0656 8.9985 5.0863 13.311 3.4237 9.8317 10.38 3.1296-3.2862 10.907 2.3642-4.4072 0.26378-8.3507-1.3958-12.66-1.5367-4.0223-3.3612-7.9159-4.9141-11.925-1.2314-3.6226-2.7703-6.8978-4.909-10.027-2.7502-3.4404-5.4693-6.8367-7.8215-10.567-1.4196-4.1342-3.0375-8.19-4.2971-12.346-0.20133-4.6361-0.1695-9.008-1.5943-13.428-0.96072-3.7457-3.5722-5.9077-6.4479-8.0782l-0.78432-0.18997 9.4437-6.4485 0.88042 0.3106c3.0719 2.401 5.8588 4.9068 6.9192 8.8691 1.4654 4.4868 1.5973 8.8897 1.668 13.613 1.1563 4.0396 2.7804 7.9506 4.1118 11.967 2.3019 3.7049 4.9892 7.0641 7.7622 10.427 2.1775 3.2329 3.8026 6.5813 5.0537 10.307 1.5339 4.0097 3.3378 7.9077 4.8664 11.926 1.7973 4.6231 3.8516 8.8362 2.0205 13.807-10.277 6.4147-13.201 9.7788-17.2-0.79394-1.9845-4.3756-3.9466-8.7814-5.1411-13.45-1.9044-5.0236-5.3812-8.9482-7.694-13.824-2.1245-4.2671-4.3414-8.3758-4.5309-13.261-0.76592-4.7773-0.48409-9.5758-1.3276-14.33-1.5942-4.1011-3.6252-7.6953-7.2892-10.346-3.0878-2.5433-6.2966-5.4374-9.9821-6.8479l9.395-6.8259z" opacity=".05618"/>
  <path d="m569.85 551.69c-2.6651 4.0388-8.3307 3.8012-11.735 7.0169 0.46853 0.08759 7.2506-4.2896 10.053-5.9525 1.6569-1.0631 7.9974-4.8669 7.1997-4.5962-5.4522 3.2326-10.883 6.507-16.275 9.8368 2.4321-1.384 7.9511-4.6506 8.6414-4.9644-2.4066 1.4054-10.528 6.0705-9.6125 5.5564 1.9916-1.1211 7.7561-4.4996 7.5698-4.2896-7.278 4.2194-2.5452 5.94-22.03 11.197-20.15 5.4361-20.624 6.6843-29.974 10.266-8.3895 4.0718-17.718 5.6756-27.261 3.2298-4.9467-0.49662-9.4288-2.5227-14.193-3.6748-6.1311-1.2833-12.446-0.14507-17.929 2.8228-2.2941 1.0945 8.4542-5.5737 3.3926-1.8234-6.0326 4.5786-12.445 8.7361-19.715 11.061-4.6014 1.7512-10.547 4.2357-14.225 5.4479 3.967-2.7932 7.264-6.7673 12.144-7.9562 3.9792-1.2296 11.729-5.5139 13.739-4.519-2.4536 1.4595-11.275 5.9948-4.8267 1.9297 8.2562-5.892 17.072-11.781 27.21-13.648 5.7992-0.59196 11.428 1.1928 16.818 3.0084 5.9548 1.3024 12.148 2.832 18.133 0.77558 8.2632-2.1696 11.258-4.0392 19.303-6.8425 6.6306-3.1447 18.672-5.4583 25.332-8.7195 4.1697-0.0713 11.063-2.8791 12.888-3.8408-2.6056 1.503-8.2186 4.7638-9.0448 5.2508 2.4084-1.4 10.491-6.1157 9.6174-5.5353-2.047 1.206 2.6688-1.4962 2.0408-1.369-2.0746 1.1946 3.2075-2.1872 1.493-1.1048-2.5969 1.6991-0.18998-0.28096 1.2454 1.4364z" fill="#868783"/>
  <path d="m527 584.55c-2.6651 4.0388-8.3307 3.8012-11.735 7.0169 0.46853 0.08759 7.2506-4.2896 10.053-5.9525 1.6569-1.0631 7.9974-4.8669 7.1997-4.5962-5.4522 3.2326-10.883 6.507-16.275 9.8368 2.4321-1.384 7.9511-4.6506 8.6414-4.9644-2.4066 1.4054-10.528 6.0705-9.6125 5.5564 1.9916-1.1211 7.7561-4.4996 7.5698-4.2896-7.278 4.2194-2.5452 5.94-22.03 11.197-20.15 5.4361-20.624 6.6843-29.974 10.266-8.3895 4.0718-17.718 5.6756-27.261 3.2298-4.9467-0.49662-9.4288-2.5227-14.193-3.6748-6.1311-1.2833-12.446-0.14507-17.929 2.8228-2.2941 1.0945 8.4542-5.5737 3.3926-1.8234-6.0326 4.5786-12.445 8.7361-19.715 11.061-4.6014 1.7512-10.547 4.2357-14.225 5.4479 3.967-2.7932 7.264-6.7673 12.144-7.9562 3.9792-1.2296 11.729-5.5139 13.739-4.519-2.4536 1.4595-11.275 5.9948-4.8267 1.9297 8.2562-5.892 17.072-11.781 27.21-13.648 5.7992-0.59196 11.428 1.1928 16.818 3.0084 5.9548 1.3024 12.148 2.832 18.133 0.77558 8.2632-2.1696 11.258-4.0392 19.303-6.8425 6.6306-3.1447 18.672-5.4583 25.332-8.7195 4.1697-0.0713 11.063-2.8791 12.888-3.8408-2.6056 1.503-8.2186 4.7638-9.0448 5.2508 2.4084-1.4 10.491-6.1157 9.6174-5.5353-2.047 1.206 2.6688-1.4962 2.0408-1.369-2.0746 1.1946 3.2075-2.1872 1.493-1.1048-2.5969 1.6991-0.18998-0.28096 1.2454 1.4364z" fill="#868783"/>
  <path d="m552.44 556.94c-15.865 4.473-30.885 11.607-46.875 15.469-13.234 2.7701-25.541-7.3865-38.562-2.8438-2.7935 1.4376-8.1676 3.5842-9.9968 5.9889 1.2913 2.3749 4.6586-3.7591 6.7468-3.2701 8.6393-2.7288 17.2 0.19482 25.469 2.4062 8.524 1.9216 17.277 0.2905 25.068-3.2391 12.239-4.0549 24.51-8.3369 36.495-12.761 0.41915-0.26378 3.6308-1.9089 1.6562-1.75z"/>
  <path d="m463.56 606.21c-13.234 3.451-25.541-9.202-38.562-3.5427-2.7935 1.7909-8.1676 4.4651-9.9968 7.4609 1.2913 2.9586 4.6586-4.683 6.7468-4.0739 8.6393-3.3994 17.2 0.2427 25.469 2.9977 8.524 2.3938 17.277 0.3619 25.068-4.0352 12.239-5.0515 29.923-10.927 41.908-16.439 0.96048 3.4607-34.642 12.821-50.632 17.632z"/>
  <path d="m466.98 608.99c-4.5005 1.6298-9.1132 3.4818-13.897 2.0965-2.6726-1.2829-7.2597-0.94481-8.253 1.5084 7.5274 2.0988 16.091 2.0233 22.15-3.6049z" fill="#fff5ff"/>
  <path d="m506.22 578.78c-5.2581 0.61967-5.8303 1.7141-10.614 0.32873-2.6726-1.2829-4.7343-1.955-5.7276 0.4983 7.5274 2.0988 8.5147 3.5385 16.342-0.82703z" fill="#fff5ff"/>
  <path d="m442.75 567.58c1.4043-0.12327 2.0934 0.18599 2.8056 1.3542 0.48342 1.4655-1.725 3.479-2.1851 4.8644 0.34424 1.1339 2.5626 1.4225 2.7451 2.6544 0.04375 1.2299 0.9282 2.0832 1.4924 3.1137 0.17214 1.3746 0.22544 2.6819 0.68134 4.0004 0.27606 1.1481-0.07496 3.374 0.58256 4.321 0.63398 1.1959 2.4074 0.44625 3.6461 0.87932 1.0155 0.22886 2.0601 0.14541 3.0828 0.10405l-2.965 1.866c-1.0614 0.01804-2.1411 0.06578-3.1744-0.22532-1.2583-0.49087-0.74507-1.5199-2.7487-2.3882-0.68425-0.98651-0.00883-1.9358-0.30397-3.1232-0.45178-1.3101-1.8277-6.2431-1.8594-7.5167-0.17242-1.2656-2.4674-1.8599-2.7824-3.0537 2.3981-1.6493 1.0109-2.6213 0.5928-4.0142-0.74732-0.99027-1.3548-1.1129-2.6573-0.96871l3.0476-1.8676z" fill="#fff"/>
  <path d="m390.75 605.58c1.4043-0.09848 2.0934 0.14858 2.8056 1.0818 0.48342 1.1708-1.725 2.7793-2.1851 3.8861 0.34424 0.90586 2.5626 1.1364 2.7451 2.1206 0.04375 0.98253 0.9282 1.6643 1.4924 2.4875 0.17214 1.0981 0.22544 2.1425 0.68134 3.1959 0.27606 0.91718-0.07496 2.6954 0.58256 3.452 0.63398 0.95538 2.4074 0.35651 3.6461 0.70248 1.0155 0.18284 2.0601 0.11617 3.0828 0.08313l-2.965 1.4907c-1.0614 0.01442-2.1411 0.05256-3.1744-0.18-1.2583-0.39215-0.74507-1.2142-2.7487-1.9079-0.68425-0.78811-0.00883-1.5465-0.30397-2.4951-0.45178-1.0466-1.8277-4.9876-1.8594-6.005-0.17242-1.011-2.4674-1.4858-2.7824-2.4395 2.3981-1.3176 1.0109-2.0942 0.5928-3.2069-0.74732-0.79111-1.3548-0.8891-2.6573-0.77389l3.0476-1.492z" fill="#fff"/>
  <path d="m384.35 253.5c7.9055 10.662 13.542 24.004 12.438 37.999 0.12302 16.69 2.0457 33.643 9.6178 48.443 11.144 29.866 23.394 59.346 39.101 86.701 4.4357 10.15 7.2165 21.114 11.688 31.265l20.688-10.32c-7.3558-17.797-12.708-36.856-23.344-52.853-14.043-27.69-24.85-57.288-35.344-86.758-4.503-19.142 1.6358-40.914-9.5938-58.03-1.8672-3.1531-3.9214-8.0007-7.7596-4.2682l-17.49 7.8211z" fill="#fff"/>
  <path d="m448.9 667.75c-0.42611 3.6264 0.08723 7.0069 1.0502 10.472 1.476 4.1756 4.1131 7.7643 6.0712 11.71 2.1696 4.1502 2.16 8.202 1.4799 12.667-0.51414 3.6272 1.8758 6.2364 3.1917 9.4102 3.0027 8.1679-7.8044 14.429-13.744 8.3431-2.5618-3.4004-2.9654-7.5305-3.5935-11.617-0.96809-3.9666-2.7968-7.5708-4.8655-11.049-2.3076-2.7214-3.3709-6.1565-4.8257-9.3578-1.5216-3.4946-3.0473-6.9009-4.9562-10.211-4.344-10.139-3.1926-9.9759 8.6737-14.641 5.4899 4.126 10.508 8.3269 11.428 15.341 0.05265 4.708-0.01362 9.418-0.00984 14.127 0.64382 3.7536 3.4214 6.4111 5.1819 9.604 4.624 5.9592-7.2874 13.258-6.9925 4.6077-1.6646-4.6993-5.0578-8.5038-7.949-12.497-2.2179-3.4458-3.2418-7.4212-4.2498-11.351-0.66499-4.2562 1.438-7.7719 3.6398-11.221 0.13728-0.10342 0.61291-1.0156 0.69608-1.1534l9.9933-3.6266c-0.21269 0.43402-0.31203 0.92386-0.63806 1.3021-2.1146 3.2377-4.4014 6.388-4.0117 10.456 1.0113 3.7644 1.9395 7.6002 4.0731 10.92 2.9577 4.1367 6.2995 8.1185 8.1074 12.927 0.98618 8.1155-12.754 14.143-12.337 3.9995-1.839-3.2599-4.7211-6.0025-5.2761-9.9243 0.01259-4.6889 0.07055-9.3782 0.02935-14.067-0.92591-6.4978-5.0567-10.962-10.887-14.109 11.781-6.1103 5.8928-4.4496 10.124 4.7878 1.8959 3.3114 3.446 6.7111 4.955 10.206 1.461 3.1709 2.5324 6.5524 4.7912 9.2773 2.1403 3.5983 3.9275 7.3526 4.9963 11.427 0.74274 3.8393 0.8524 7.851 3.3359 11.062 6.3024 5.0895-8.3059 10.623-5.3936 0.73136-1.4928-3.1802-3.7511-6.0364-3.3151-9.7538 0.60012-4.2988 0.9563-8.139-1.2163-12.162-1.9785-3.9865-4.6796-7.5884-6.1729-11.815-0.97264-3.5399-1.539-6.9945-1.3468-10.696l9.9627-4.1267z" opacity=".14607"/>
 </g>
</svg>
