<?xml version='1.0' encoding='utf-8'?>
<svg xmlns="http://www.w3.org/2000/svg" xmlns:xlink="http://www.w3.org/1999/xlink" enable-background="new 0 0 31.35 75" version="1.1" viewBox="0 0 31.35 75">
<symbol id="y" viewBox="0.005 -37.3 31.355 37.3">
		<linearGradient id="p" x1=".0376" x2="31.392" y1="-18.65" y2="-18.65" gradientUnits="userSpaceOnUse">
			<stop stop-color="#C2E7FF" offset="0"/>
			<stop stop-color="#88ABC2" offset="1"/>
		</linearGradient>
		<path d="m20.35-0.1l-0.1-7.15 11.05-23.3c0.233-1.167-0.216-2.267-1.35-3.3-2.5-2.3-7.784-3.45-15.85-3.45-2.233 0-4.5 0.283-6.8 0.85-2.733 0.633-4.683 1.517-5.85 2.65-1.133 1.033-1.6 2.133-1.4 3.3l10.95 23.45-0.05 7.05c0.267-0.2 0.533-0.35 0.8-0.45 2.833-1.033 5.7-0.917 8.6 0.35z" clip-rule="evenodd" fill="url(#p)" fill-rule="evenodd"/>
</symbol>
<symbol id="z" viewBox="0 -31.7 31.148 31.7">
		<path d="m10.85-7.05l-0.05 7.05 0.8-0.45v-6.9l-9.25-20.425c0.2 0.327 3.367 0.819 9.5 1.475 4.2 0.466 8.283 0.283 12.25-0.55 2-0.433 3.566-0.9 4.7-1.4l-9.5 20.9v6.7l0.9 0.55-0.25-7.3 10.55-22.05c0.6-0.933 0.783-1.65 0.55-2.15l-0.35-0.1c-0.034 1.5-1.534 2.767-4.5 3.8-2.934 1.066-6.483 1.6-10.65 1.6-3.867 0-7.233-0.45-10.1-1.35s-4.534-2.033-5-3.4h-0.45l10.85 24z" clip-rule="evenodd" fill-rule="evenodd"/>
</symbol>
<symbol id="aa" viewBox="0 -10.9 30.35 10.9">
			<radialGradient id="q" cx="15.175" cy="-5.4502" r="15.072" gradientTransform="matrix(1 0 0 -.343 0 -7.3203)" gradientUnits="userSpaceOnUse">
			<stop stop-color="#B4EDED" offset="0"/>
			<stop stop-color="#fff" offset="1"/>
		</radialGradient>
		<path d="m30.35-5.45c0-1.5-1.483-2.783-4.45-3.85s-6.533-1.6-10.7-1.6c-4.2 0-7.784 0.533-10.75 1.6-2.967 1.067-4.45 2.35-4.45 3.85s1.483 2.783 4.45 3.85 6.55 1.6 10.75 1.6c4.167 0 7.733-0.533 10.7-1.6s4.45-2.35 4.45-3.85z" clip-rule="evenodd" fill="url(#q)" fill-rule="evenodd"/>
</symbol>
<symbol id="ab" viewBox="0.023 -5.7 12.974 5.7">
		<linearGradient id="r" x1=".0234" x2="12.997" y1="-2.8501" y2="-2.8501" gradientUnits="userSpaceOnUse">
			<stop stop-color="#C2E7FF" offset="0"/>
			<stop stop-color="#88ABC2" offset="1"/>
		</linearGradient>
		<path d="m10.5-3c0.167 0.233 0.383 0.567 0.65 1 0.233 0.3 0.45 0.45 0.65 0.45 0.4 0 0.784-0.4 1.15-1.2 0.133-0.333-0.017-0.683-0.45-1.05-0.6-0.434-1.017-0.733-1.25-0.9-0.367-0.267-1.117-0.5-2.25-0.7-1.167-0.2-2.267-0.3-3.3-0.3-1.833 0-3.534 0.517-5.1 1.55-0.467 0.333-0.65 0.783-0.55 1.35 0.1 0.533 0.434 1.066 1 1.6 0.733 0.7 2.117 1.1 4.15 1.2 1.3-0.1 1.466-0.15 0.5-0.15-0.7 0-1.483-0.25-2.35-0.75-0.867-0.533-1.333-1.033-1.4-1.5-0.033-0.467 0.317-0.833 1.05-1.1 0.7-0.267 1.6-0.4 2.7-0.4 2.8 0 4.4 0.3 4.8 0.9z" clip-rule="evenodd" fill="url(#r)" fill-rule="evenodd"/>
</symbol>
<symbol id="ac" viewBox="-0.006 -3.389 9.019 3.402">
		<linearGradient id="s" x1=".0376" x2="9.0565" y1="-1.688" y2="-1.688" gradientUnits="userSpaceOnUse">
			<stop stop-color="#C2E7FF" offset="0"/>
			<stop stop-color="#88ABC2" offset="1"/>
		</linearGradient>
		<path d="m7.15-0.35c0.967-0.167 1.55-0.417 1.75-0.75 0.1-0.167 0.133-0.567 0.1-1.2-0.033-0.467-1.05-0.8-3.05-1-2-0.167-3.534-0.1-4.6 0.2-0.967 0.3-1.417 0.783-1.35 1.45 0.067 0.6 0.4 1.017 1 1.25 1.367 0.533 3.417 0.55 6.15 0.05z" clip-rule="evenodd" fill="url(#s)" fill-rule="evenodd"/>
</symbol>
<symbol id="ad" viewBox="0.005 -37.6 31.355 37.6">
		<linearGradient id="t" x1=".0376" x2="31.392" y1="-18.8" y2="-18.8" gradientUnits="userSpaceOnUse">
			<stop stop-color="#fff" offset="0"/>
			<stop stop-color="#91DBDB" offset="1"/>
		</linearGradient>
		<path d="m11 0h9.2l0.05-7.15 11.05-24.1c0.233-1.1-0.216-2.15-1.35-3.15-2.467-2.133-7.75-3.2-15.85-3.2-2.233 0-4.5 0.267-6.8 0.8-2.733 0.6-4.683 1.417-5.85 2.45-1.133 1-1.6 2.05-1.4 3.15l11.05 24.3-0.1 6.9z" clip-rule="evenodd" fill="url(#t)" fill-rule="evenodd"/>
</symbol>
		<use transform="matrix(1 0 0 -1 .5 31.2)" y="-10.9" width="30.35" height="10.9" enable-background="new" opacity=".1602" xlink:href="#aa"/>
		<use transform="matrix(1 0 0 -1 .1499 4.8999)" y="-31.7" width="31.148" height="31.7" enable-background="new" opacity=".1289" xlink:href="#z"/>
		<use transform="matrix(1 0 0 -1 0 4.8999)" x="0.005" y="-37.3" width="31.355" height="37.3" enable-background="new" opacity=".3086" xlink:href="#y"/>
	<g clip-rule="evenodd" fill="#BD5E27" fill-rule="evenodd">
		<path d="m10.9 38.1l2.9-20.149c0.267-0.733 0.067 1.55-0.6 6.85-0.6 4.7-1.1 8.267-1.5 10.7-0.367 2.299-0.633 3.166-0.8 2.599z"/>
		<path d="m10.35 20.85l0.85 0.2c0.767 0.133 1.6 0.217 2.5 0.25 1.399 0.1 2.416 0.133 3.05 0.1 0.134 0.267 0.033 0.4-0.3 0.4-0.434 0.034-0.867 0.05-1.3 0.05-0.8 0-1.684-0.067-2.65-0.2l-2.2-0.45 0.05-0.35z"/>
		<path d="m9.05 25.6c1 0.233 2.383 0.433 4.15 0.6 1.533 0.133 2.816 0.15 3.85 0.05 0.2 0.467 0.084 0.7-0.35 0.7-1.4 0-3.067-0.133-5-0.4-0.867-0.1-1.583-0.216-2.15-0.35l-0.6-0.2 0.1-0.4z"/>
		<path d="m7.15 31.15c1.233 0.267 2.95 0.5 5.15 0.7 1.633 0.133 2.717 0.2 3.25 0.2 0.134 0 0.634-0.033 1.5-0.1 0.267 0.566 0.134 0.85-0.399 0.85-1.967 0-4.034-0.15-6.2-0.45-1.667-0.233-2.8-0.467-3.4-0.7l0.099-0.5z"/>
		<path d="m5.85 36.05c1.3 0.367 3.267 0.684 5.9 0.95 2.267 0.267 4.2 0.35 5.8 0.25 0.334 0.533 0.2 0.8-0.399 0.8h-2.25c-1.433-0.066-3.15-0.25-5.15-0.55-2-0.267-3.35-0.55-4.05-0.85l0.149-0.6z"/>
		<path d="m10.3 23.6l0.75 0.15c0.667 0.1 1.383 0.167 2.15 0.2 1.267 0.1 2.166 0.133 2.7 0.1 0.133 0.233 0.05 0.35-0.25 0.35-1.634 0-2.8-0.05-3.5-0.15l-1.9-0.4 0.05-0.25z"/>
		<path d="m8.8 28.8c0.9 0.233 2.133 0.4 3.7 0.5 1.567 0.133 2.7 0.184 3.4 0.15 0.166 0.267 0.066 0.4-0.301 0.4-0.5 0.033-0.983 0.05-1.45 0.05-0.9 0-1.9-0.1-3-0.3l-2.4-0.45 0.051-0.35z"/>
		<path d="m7.3 34.1c1.034 0.267 2.467 0.467 4.3 0.6 1.867 0.133 3.2 0.2 4 0.2 0.167 0.267 0.034 0.4-0.399 0.4-1.434 0.067-3.15-0.05-5.15-0.35l-2.8-0.55 0.049-0.3z"/>
	</g>
		<use transform="matrix(1 0 0 -1 0 4.4502)" x="0.005" y="-37.6" width="31.355" height="37.6" enable-background="new" opacity=".3516" xlink:href="#ad"/>
	<linearGradient id="u" x1="-.0874" x2="31.388" y1="23.525" y2="23.525" gradientUnits="userSpaceOnUse">
		<stop stop-color="#fff" offset="0"/>
		<stop stop-color="#91DBDB" offset="1"/>
	</linearGradient>
	<path d="m20.45 4.9v7.1l10.85 23.45c0.233 1.167-0.217 2.267-1.35 3.3-1.4 1.3-3.717 2.25-6.95 2.85-2.3 0.4-4.8 0.6-7.5 0.6h-1.4c-2.233 0-4.5-0.283-6.8-0.851-2.733-0.633-4.683-1.517-5.85-2.649-1.133-1.034-1.6-2.133-1.4-3.3l10.75-23.45v-7.1l0.45 0.2v7.05l-0.1 0.15-10.05 21.95v0.1l-0.05 0.05-0.3 0.45c-0.233 0.4-0.333 0.8-0.3 1.2 0.066 0.8 0.483 1.567 1.25 2.3 1.167 1.1 3.133 1.967 5.9 2.6 2.267 0.5 4.433 0.75 6.5 0.75h1.4c2.4 0 4.684-0.167 6.85-0.5 3.467-0.567 5.9-1.5 7.301-2.801 0.833-0.766 1.25-1.533 1.25-2.3 0.033-0.4-0.051-0.8-0.25-1.2l-0.301-0.449-0.05-0.05-10.25-22.15v-7.05l0.4-0.25z" clip-rule="evenodd" fill="url(#u)" fill-rule="evenodd"/>
		<linearGradient id="v" x1="3.2603" x2="33.842" y1="-15.269" y2="-15.269" gradientTransform="matrix(-.2575 .9663 -.9663 -.2575 -.00042248 -1.1981e-5)" gradientUnits="userSpaceOnUse">
		<stop stop-color="#fff" offset="0"/>
		<stop stop-color="#fff" stop-opacity=".3176" offset="1"/>
	</linearGradient>
	<path d="m13 5.65l0.75 0.1h0.1v6.95l-0.05 0.05 0.45 0.05c1.066 0.067 1.95 0.05 2.65-0.05-0.467 0.3-1.4 0.383-2.8 0.25l-0.35-0.05-8.35 27.6-2.6-0.75-1.65-1.7 11.7-25.35c-0.267-0.067-0.483-0.167-0.65-0.3l-0.15-0.2 0.9 0.35 0.05-0.2v-6.75z" clip-rule="evenodd" fill="url(#v)" fill-rule="evenodd"/>
	<linearGradient id="w" x1="19.833" x2="27.708" y1="36.974" y2="7.4236" gradientUnits="userSpaceOnUse">
		<stop stop-color="#fff" stop-opacity=".6392" offset="0"/>
		<stop stop-color="#fff" stop-opacity="0" offset="1"/>
	</linearGradient>
	<path d="m18.3 5.5v6.9l11.9 25.7-1.65 1.7-2.65 0.75c0.333-0.3 0.6-0.649 0.8-1.05 0.399-0.733 0.25-1.283-0.45-1.65-0.533-0.233-1.333-0.217-2.4 0.05l-1.45 0.5c0.366-0.2 0.666-0.617 0.899-1.25 0.5-1.333 0.434-3.15-0.2-5.45l-5.6-19v-7l0.801-0.2z" clip-rule="evenodd" fill="url(#w)" fill-rule="evenodd"/>
	<path d="m5.7 37.9c0.533 0.333 1.9 0.933 4.1 1.8-1.1 0.1-2.4-0.1-3.9-0.6-1-0.3-1.417-0.649-1.25-1.05 0.167-0.4 0.517-0.45 1.05-0.15z" clip-rule="evenodd" fill="#fff" fill-rule="evenodd"/>
	<path d="m3.7 36.8c0.267 0.3 0.267 0.534 0 0.7-0.233 0.2-0.467 0.117-0.7-0.25-0.167-0.3-0.117-0.483 0.15-0.55 0.267-0.033 0.45 0 0.55 0.1z" clip-rule="evenodd" fill="#fff" fill-rule="evenodd"/>
		<use transform="matrix(1 0 0 -1 11.1 .4502)" x="-0.006" y="-3.389" width="9.019" height="3.402" enable-background="new" opacity=".3086" xlink:href="#ac"/>
		<use transform="matrix(1 0 0 -1 9.1001 .2998)" x="0.023" y="-5.7" width="12.974" height="5.7" enable-background="new" opacity=".3086" xlink:href="#ab"/>
	<linearGradient id="x" x1="-.0874" x2="31.388" y1="3.0498" y2="3.0498" gradientUnits="userSpaceOnUse">
		<stop stop-color="#fff" offset="0"/>
		<stop stop-color="#91DBDB" offset="1"/>
	</linearGradient>
	<path d="m19.6 2.15c0-0.4-0.416-0.733-1.25-1-0.8-0.3-1.783-0.45-2.949-0.45-1.167 0-2.167 0.15-3 0.45-0.8 0.267-1.2 0.6-1.2 1s0.4 0.75 1.2 1.05c0.833 0.3 1.833 0.45 3 0.45 1.133 0 2.116-0.15 2.949-0.45 0.834-0.3 1.25-0.65 1.25-1.05zm0.5 3.05c-1.267 0.6-2.816 0.9-4.649 0.9-1.8 0-3.333-0.3-4.6-0.9-1.301-0.6-1.951-1.317-1.951-2.15s0.65-1.55 1.95-2.15c1.267-0.6 2.8-0.9 4.6-0.9 1.833 0 3.383 0.3 4.649 0.9 1.301 0.6 1.95 1.317 1.95 2.15 1e-3 0.833-0.649 1.55-1.949 2.15zm1.05-1.1c0.366-0.467 0.483-0.917 0.35-1.35-0.1-0.367-0.3-0.583-0.6-0.65-0.267-0.067-0.417 0.017-0.45 0.25-0.1 0.467-0.467 0.85-1.1 1.15-0.866 0.433-2.066 0.667-3.6 0.7-3.233 0.033-4.933-0.5-5.1-1.6-0.133-0.833 0.2-1.417 1-1.75l-0.3 0.1c-1.167 0.433-1.8 1.1-1.9 2-0.133 1.133 0.917 1.966 3.15 2.5 1.833 0.433 4 0.333 6.5-0.3 0.9-0.2 1.584-0.55 2.05-1.05z" clip-rule="evenodd" fill="url(#x)" fill-rule="evenodd"/>
	<path d="m16.9 4.85c-0.434 0.233-1.867 0.25-4.3 0.05-0.934-0.1-1.533-0.283-1.8-0.55-0.233-0.233-0.233-0.417 0-0.55 0.067-0.033 0.317 0.034 0.75 0.2 0.633 0.233 1.333 0.417 2.1 0.55 1.367 0.233 2.45 0.333 3.25 0.3z" clip-rule="evenodd" fill="#fff" fill-rule="evenodd"/>
	<path d="m18.75 4.35c0.167-0.033 0.167 0.05 0 0.25-0.134 0.167-0.35 0.25-0.65 0.25s-0.35-0.067-0.149-0.2 0.466-0.233 0.799-0.3z" clip-rule="evenodd" fill="#fff" fill-rule="evenodd"/>
</svg>